<?xml version="1.0" standalone="no"?>
<!DOCTYPE svg PUBLIC "-//W3C//DTD SVG 20010904//EN"
 "http://www.w3.org/TR/2001/REC-SVG-20010904/DTD/svg10.dtd">
<svg version="1.0" xmlns="http://www.w3.org/2000/svg"
 width="260.000000pt" height="260.000000pt" viewBox="0 0 260.000000 260.000000"
 preserveAspectRatio="xMidYMid meet">
<metadata>
Created by potrace 1.14, written by Peter Selinger 2001-2017
</metadata>
<g transform="translate(0.000000,260.000000) scale(0.100000,-0.100000)"
fill="#000000" stroke="none">
<path d="M1277 2572 c-22 -24 -21 -55 2 -76 18 -16 17 -20 -22 -145 l-41 -129
-62 81 c-61 79 -61 80 -46 107 15 25 15 30 -1 54 -30 45 -97 26 -97 -27 0 -27
9 -41 35 -55 19 -10 21 -19 20 -122 l-2 -112 26 6 c134 31 165 34 246 31 50
-2 116 -11 148 -19 32 -9 60 -16 62 -16 3 0 5 54 5 120 0 97 3 120 14 120 22
0 46 29 46 54 0 55 -75 73 -101 24 -9 -17 -8 -28 5 -53 18 -32 18 -32 -25
-108 -23 -42 -45 -74 -49 -72 -4 2 -28 58 -55 124 -46 114 -48 121 -32 139 23
26 21 58 -5 76 -29 21 -51 20 -71 -2z"/>
<path d="M1308 2136 c-1 -2 -32 -6 -68 -9 -57 -5 -190 -44 -207 -61 -4 -3 11
-31 32 -61 27 -40 43 -54 54 -50 101 40 259 44 351 10 l45 -16 43 48 c23 26
42 51 42 55 0 19 -135 66 -215 74 -27 3 -55 7 -62 9 -6 2 -13 2 -15 1z"/>
<path d="M878 1931 c-121 -134 -169 -340 -128 -541 43 -207 174 -365 360 -430
36 -13 67 -25 70 -28 3 -2 -6 -13 -20 -24 -14 -11 -64 -57 -111 -102 -207
-196 -352 -331 -360 -334 -4 -2 -43 25 -86 60 -43 35 -152 124 -243 197 -91
73 -173 139 -182 146 -17 14 -18 7 -18 -133 0 -81 4 -152 8 -157 4 -6 75 -66
157 -134 83 -68 157 -132 165 -141 12 -13 15 -42 14 -141 -1 -68 0 -132 3
-141 4 -16 7 -15 27 5 19 19 179 168 266 247 28 26 199 184 303 280 146 135
159 145 169 122 2 -4 62 -55 133 -112 72 -58 135 -109 141 -115 6 -5 98 -80
204 -165 106 -85 225 -182 264 -214 l71 -60 3 145 2 144 41 37 c23 20 99 85
169 145 l129 108 0 148 c1 84 -3 147 -8 145 -5 -2 -103 -79 -217 -173 -114
-93 -229 -186 -254 -207 l-46 -36 -54 45 c-30 25 -66 55 -80 66 -14 12 -50 42
-80 67 -30 25 -60 49 -66 55 -6 5 -53 44 -103 85 l-91 75 55 52 c30 29 76 63
103 77 101 51 199 162 249 281 74 176 60 414 -34 574 -28 48 -100 131 -114
131 -5 0 -28 -21 -51 -47 -24 -25 -56 -59 -72 -76 -20 -20 -27 -33 -20 -42 5
-6 26 -34 46 -61 158 -208 42 -522 -207 -560 -103 -15 -157 -9 -239 30 -198
92 -253 366 -109 543 44 54 44 55 26 76 -44 52 -127 137 -134 137 -4 0 -27
-22 -51 -49z"/>
<path d="M179 1363 c-3 -55 -2 -284 2 -286 2 -2 120 -99 262 -215 141 -117
262 -212 267 -212 5 0 47 37 94 81 l86 81 -28 21 c-15 12 -29 24 -32 27 -3 3
-117 95 -255 205 -137 109 -283 225 -322 258 -57 45 -73 54 -74 40z"/>
<path d="M2033 1094 l-353 -282 86 -81 c48 -45 91 -81 96 -81 5 0 38 24 72 53
35 28 105 86 157 129 52 42 104 85 115 95 12 10 58 47 103 83 49 40 81 73 82
85 4 69 3 258 -1 269 -3 8 -134 -91 -357 -270z"/>
<path d="M1118 389 c-5 -3 -8 -30 -6 -60 l3 -54 57 -2 c35 -1 58 3 61 10 3 10
2 87 -2 108 -1 7 -100 6 -113 -2z"/>
<path d="M1300 332 l0 -63 60 2 c65 2 63 0 63 69 0 55 0 55 -63 55 l-60 0 0
-63z"/>
<path d="M1116 212 c-12 -11 -6 -110 7 -114 10 -4 90 -3 107 1 3 0 5 27 5 58
l0 58 -57 1 c-31 1 -59 -1 -62 -4z"/>
<path d="M1302 155 l3 -60 58 0 c61 -1 61 -1 59 65 -1 61 2 58 -62 57 l-61 -1
3 -61z"/>
</g>
</svg>
