<svg xmlns="http://www.w3.org/2000/svg" fill="none" viewBox="0 0 51 44"><path fill="#2C2C2C" d="M6.57 1v36.6h2.52V43H.57V1h6ZM22.703 36.76c0 2.12-.62 3.76-1.86 4.92-1.24 1.12-2.82 1.68-4.74 1.68-1.92 0-3.5-.56-4.74-1.68-1.24-1.16-1.86-2.8-1.86-4.92V7.24c0-2.08.62-3.7 1.86-4.86 1.28-1.16 2.88-1.74 4.8-1.74s3.48.58 4.68 1.74c1.24 1.12 1.86 2.74 1.86 4.86v29.52Zm-6-29.82c0-.6-.2-.9-.6-.9-.4 0-.6.3-.6.9v30.12c0 .6.2.9.6.9.4 0 .6-.3.6-.9V6.94ZM36.617 20.86V43h-6v-2.4l-.12-.06c-.32.92-.76 1.62-1.32 2.1s-1.2.72-1.92.72c-1.12 0-2.04-.56-2.76-1.68-.72-1.16-1.08-2.8-1.08-4.92V7.24c0-2.08.62-3.7 1.86-4.86 1.28-1.16 2.88-1.74 4.8-1.74s3.48.58 4.68 1.74c1.24 1.12 1.86 2.74 1.86 4.86v9.66h-6V6.94c0-.6-.2-.9-.6-.9-.4 0-.6.3-.6.9V37.3c0 .6.2.9.6.9.4 0 .6-.3.6-.9V26.26h-.6v-5.4h6.6ZM50.531 36.76c0 2.12-.62 3.76-1.86 4.92-1.24 1.12-2.82 1.68-4.74 1.68-1.92 0-3.5-.56-4.74-1.68-1.24-1.16-1.86-2.8-1.86-4.92V7.24c0-2.08.62-3.7 1.86-4.86 1.28-1.16 2.88-1.74 4.8-1.74s3.48.58 4.68 1.74c1.24 1.12 1.86 2.74 1.86 4.86v29.52Zm-6-29.82c0-.6-.2-.9-.6-.9-.4 0-.6.3-.6.9v30.12c0 .6.2.9.6.9.4 0 .6-.3.6-.9V6.94Z"/></svg>