<svg xmlns="http://www.w3.org/2000/svg" dataName="Layer 2" viewBox="0 0 460.8 95.15"><g dataName="Layer 1"><path d="M83.11 83.69c0 3.72-2.7 5.98-7.16 5.98h-4.24v5.2h-2.45V77.71h6.69c4.46 0 7.16 2.26 7.16 5.98Zm-2.45 0c0-2.45-1.64-3.85-4.78-3.85h-4.17v7.7h4.17c3.14 0 4.78-1.4 4.78-3.85Z"/><path d="M71.8 94.96h-2.64V77.61h6.78c4.54 0 7.25 2.27 7.25 6.08s-2.71 6.07-7.25 6.07h-4.15v5.2Zm-2.45-.19h2.26v-5.2h4.33c4.42 0 7.06-2.2 7.06-5.89s-2.64-5.89-7.06-5.89h-6.6v16.97Zm6.52-7.14h-4.26v-7.89h4.26c3.14 0 4.87 1.4 4.87 3.94s-1.73 3.94-4.87 3.94Zm-4.07-.19h4.07c3.02 0 4.69-1.33 4.69-3.75s-1.66-3.76-4.69-3.76H71.8v7.51ZM113.94 77.7v17.16h-2.45v-7.65h-9.85v7.65h-2.45V77.7h2.45v7.38h9.85V77.7h2.45Z"/><path d="M114.03 94.96h-2.64v-7.65h-9.66v7.65h-2.64V77.61h2.64v7.38h9.66v-7.38h2.64v17.35Zm-2.45-.19h2.26V77.8h-2.26v7.38h-10.04V77.8h-2.26v16.97h2.26v-7.65h10.04v7.65ZM130.16 86.28c0-5.02 3.87-8.77 9.14-8.77s9.09 3.72 9.09 8.77-3.87 8.77-9.09 8.77-9.14-3.75-9.14-8.77Zm15.78 0c0-3.8-2.84-6.59-6.64-6.59s-6.69 2.79-6.69 6.59 2.84 6.59 6.69 6.59 6.64-2.79 6.64-6.59Z"/><path d="M139.3 95.15c-5.27 0-9.24-3.81-9.24-8.87s3.97-8.87 9.24-8.87 9.19 3.81 9.19 8.87-3.95 8.87-9.19 8.87Zm0-17.55c-5.16 0-9.05 3.73-9.05 8.68s3.81 8.68 9.05 8.68 9-3.65 9-8.68-3.79-8.68-9-8.68Zm0 15.37c-3.93 0-6.79-2.81-6.79-6.69s2.85-6.69 6.79-6.69 6.74 2.87 6.74 6.69-2.9 6.69-6.74 6.69Zm0-13.19c-3.82 0-6.6 2.73-6.6 6.5s2.77 6.5 6.6 6.5 6.55-2.79 6.55-6.5-2.82-6.5-6.55-6.5ZM167.78 79.84h-5.88v-2.13h14.19v2.13h-5.88v15.03h-2.43V79.84Z"/><path d="M170.3 94.96h-2.61V79.93h-5.88v-2.32h14.38v2.32h-5.88v15.03Zm-2.43-.19h2.24V79.74h5.88V77.8h-14v1.94h5.88v15.03ZM189.6 86.28c0-5.02 3.87-8.77 9.14-8.77s9.09 3.72 9.09 8.77-3.87 8.77-9.09 8.77-9.14-3.75-9.14-8.77Zm15.78 0c0-3.8-2.84-6.59-6.64-6.59s-6.69 2.79-6.69 6.59 2.84 6.59 6.69 6.59 6.64-2.79 6.64-6.59Z"/><path d="M198.74 95.15c-5.27 0-9.24-3.81-9.24-8.87s3.97-8.87 9.24-8.87 9.19 3.81 9.19 8.87-3.95 8.87-9.19 8.87Zm0-17.55c-5.16 0-9.05 3.73-9.05 8.68s3.81 8.68 9.05 8.68 9-3.65 9-8.68-3.79-8.68-9-8.68Zm0 15.37c-3.93 0-6.78-2.81-6.78-6.69s2.85-6.69 6.78-6.69 6.74 2.87 6.74 6.69-2.9 6.69-6.74 6.69Zm0-13.19c-3.82 0-6.6 2.73-6.6 6.5s2.77 6.5 6.6 6.5 6.55-2.79 6.55-6.5-2.82-6.5-6.55-6.5ZM235.94 86.18h2.35v6.69c-1.72 1.45-4.09 2.18-6.49 2.18-5.27 0-9.14-3.7-9.14-8.77s3.87-8.77 9.19-8.77c2.72 0 5.02.91 6.59 2.65l-1.52 1.52c-1.42-1.37-3.04-1.98-4.98-1.98-3.97 0-6.84 2.77-6.84 6.59s2.87 6.59 6.81 6.59c1.45 0 2.79-.32 4.02-1.1v-5.59Z"/><path d="M231.8 95.15c-5.35 0-9.24-3.73-9.24-8.87s3.9-8.87 9.28-8.87c2.78 0 5.08.93 6.66 2.68l.06.07-.06.06-1.58 1.59-.07-.06c-1.38-1.34-2.94-1.96-4.91-1.96-3.91 0-6.74 2.73-6.74 6.5s2.83 6.5 6.72 6.5c1.51 0 2.79-.35 3.93-1.06V86.1h2.54v6.83l-.03.03c-1.66 1.4-4.05 2.2-6.55 2.2Zm.05-17.55c-5.27 0-9.1 3.65-9.1 8.68s3.81 8.68 9.05 8.68c2.44 0 4.77-.78 6.4-2.13v-6.55h-2.17v5.55l-.04.03c-1.17.75-2.51 1.12-4.07 1.12-4 0-6.91-2.81-6.91-6.69s2.92-6.69 6.93-6.69c1.96 0 3.59.64 4.97 1.95l1.39-1.39c-1.54-1.67-3.77-2.55-6.46-2.55ZM266.92 94.86l-3.7-5.27c-.34.02-.71.05-1.08.05h-4.24v5.22h-2.45V77.7h6.69c4.46 0 7.16 2.26 7.16 5.98 0 2.65-1.37 4.56-3.77 5.42l4.07 5.76h-2.67Zm-.07-11.18c0-2.45-1.64-3.85-4.78-3.85h-4.17v7.72h4.17c3.14 0 4.78-1.42 4.78-3.87Z"/><path d="M269.77 94.96h-2.9l-.03-.04-3.67-5.23c-.35.02-.69.04-1.03.04h-4.15v5.22h-2.64V77.6h6.78c4.54 0 7.25 2.27 7.25 6.08 0 2.62-1.32 4.56-3.72 5.46l4.1 5.81Zm-2.8-.19h2.44l-4.04-5.71.12-.04c2.39-.85 3.71-2.75 3.71-5.33 0-3.69-2.64-5.89-7.06-5.89h-6.6v16.97h2.26v-5.22h4.33c.36 0 .71-.02 1.07-.05h.05l.03.04 3.67 5.23Zm-4.9-7.12h-4.26v-7.91h4.26c3.14 0 4.87 1.4 4.87 3.94s-1.73 3.97-4.87 3.97Zm-4.07-.19h4.07c3.02 0 4.69-1.34 4.69-3.78s-1.66-3.76-4.69-3.76H258v7.53ZM296.67 90.57h-9.12l-1.89 4.29h-2.52l7.77-17.16h2.43l7.79 17.16h-2.57l-1.89-4.29Zm-.86-1.96-3.7-8.41-3.7 8.41h7.4Z"/><path d="M301.28 94.96h-2.78l-.03-.06-1.86-4.23h-9l-1.89 4.29h-2.73l.06-.13 7.8-17.21h2.55l.03.06 7.85 17.29Zm-2.66-.19h2.37l-7.71-16.97h-2.31l-7.68 16.97h2.32l1.89-4.29h9.24l.03.06 1.86 4.23Zm-2.66-6.06h-7.69l.06-.13 3.79-8.6.09.2 3.76 8.54Zm-7.4-.19h7.11l-3.56-8.08-3.56 8.08ZM330 83.69c0 3.72-2.7 5.98-7.16 5.98h-4.24v5.2h-2.45V77.71h6.69c4.46 0 7.16 2.26 7.16 5.98Zm-2.45 0c0-2.45-1.64-3.85-4.78-3.85h-4.17v7.7h4.17c3.14 0 4.78-1.4 4.78-3.85Z"/><path d="M318.7 94.96h-2.64V77.61h6.78c4.54 0 7.25 2.27 7.25 6.08s-2.71 6.07-7.25 6.07h-4.15v5.2Zm-2.45-.19h2.26v-5.2h4.33c4.42 0 7.06-2.2 7.06-5.89s-2.64-5.89-7.06-5.89h-6.6v16.97Zm6.52-7.14h-4.26v-7.89h4.26c3.14 0 4.87 1.4 4.87 3.94s-1.73 3.94-4.87 3.94Zm-4.07-.19h4.07c3.02 0 4.69-1.33 4.69-3.75s-1.66-3.76-4.69-3.76h-4.07v7.51ZM360.84 77.7v17.16h-2.45v-7.65h-9.85v7.65h-2.45V77.7h2.45v7.38h9.85V77.7h2.45Z"/><path d="M360.93 94.96h-2.64v-7.65h-9.67v7.65h-2.64V77.61h2.64v7.38h9.67v-7.38h2.64v17.35Zm-2.45-.19h2.26V77.8h-2.26v7.38h-10.04V77.8h-2.26v16.97h2.26v-7.65h10.04v7.65ZM385.03 88.93v5.93h-2.43v-5.98l-6.81-11.18h2.62l5.49 9.05 5.52-9.05h2.42l-6.81 11.23Z"/><path d="M385.12 94.96h-2.61v-6.05l-6.89-11.3h2.84l.03.04 5.41 8.91 5.46-8.96h2.65l-.09.14-6.8 11.2v6Zm-2.43-.19h2.24v-5.89l6.74-11.08h-2.2l-5.57 9.13-.08-.13-5.46-9h-2.4l6.74 11.06v5.91ZM15.04.56c1.75 0 2.31 1.27 2.31 2.23v46.96c0 3.82-3.02 6.92-6.85 7v.08H6.92c-3.9 0-6.93-3.19-6.93-7.08v-1.12c0-1.83.8-2.7 1.59-3.02.4-.24 2.55-1.19 3.98-1.83v5.02c0 1.67 1.35 3.02 3.02 3.02s3.02-1.35 3.02-3.02V.56h3.42ZM67.65 50.62c-.64 1.43-1.59 3.66-1.83 4.14-.4.72-1.27 1.51-3.1 1.51H49.98V2.15c.08-.88.8-1.59 1.75-1.59h14.89L64.71 4.7c-.32.72-1.19 1.59-3.02 1.59h-4.62c-.8 0-1.35.56-1.35 1.35V24.2h8.6c-.64 1.43-1.59 3.74-1.83 4.22-.4.72-1.19 1.51-3.02 1.51h-2.39c-.72 0-1.35.64-1.35 1.35v19.34h11.94ZM113.89 56.28h-6.29l-5.02-38.37-5.01 38.37h-6.29L99.72.56h3.11c2.39 0 2.79 1.51 3.02 3.02l8.04 52.69ZM157.9 56.28h-2.63c-3.1 0-3.58-2.47-3.82-3.58l-6.13-27.54v31.12h-5.73V.56h2.63c3.18 0 3.74 1.51 4.06 3.1l5.89 28.97V.56h5.73v55.72ZM194.11 32.56c0 .96-.8 1.75-1.75 1.75h-8.6v-2.15c0-.88.8-1.67 1.75-1.67h8.6v2.07ZM237.88 15.76c0 1.91-.8 2.71-1.59 3.1-.4.24-2.63 1.27-4.14 1.91V8.04c0-1.67-1.35-3.02-3.02-3.02s-3.02 1.35-3.02 3.02v40.75c0 1.67 1.35 3.02 3.02 3.02s3.02-1.35 3.02-3.02V32.15h-.24c-1.27 0-2.07-1.83-2.07-1.83l-1.91-3.98h7.16c1.75 0 2.79.96 2.79 3.1v20.3c0 3.82-3.1 6.92-6.92 7.08h-3.5c-3.9 0-7.08-3.19-7.08-7.08V7.08c0-3.9 3.18-7.08 7.08-7.08h3.5c3.82.16 6.92 3.26 6.92 7.08v8.68ZM273.45.56c1.67 0 2.31 1.27 2.31 2.23v53.49h-4.06c-1.35 0-1.59-.8-1.67-1.19V.56h3.42ZM328.21 50.62c-.64 1.43-1.59 3.66-1.83 4.14-.4.72-1.27 1.51-3.1 1.51h-13.69V.56h3.98c.96.08 1.75.8 1.75 1.75v48.31h12.9ZM371.98 50.62c-.64 1.43-1.59 3.66-1.83 4.14-.4.72-1.27 1.51-3.1 1.51h-13.69V.56h3.98c.96.08 1.75.8 1.75 1.75v48.31h12.9ZM415.43 50.62c-.64 1.43-1.59 3.66-1.83 4.14-.4.72-1.27 1.51-3.1 1.51h-12.74V2.15c.08-.88.8-1.59 1.75-1.59h14.89l-1.91 4.14c-.32.72-1.19 1.59-3.02 1.59h-4.62c-.8 0-1.35.56-1.35 1.35V24.2h8.6c-.64 1.43-1.59 3.74-1.83 4.22-.4.72-1.19 1.51-3.02 1.51h-2.39c-.72 0-1.35.64-1.35 1.35v19.34h11.94ZM454.98 14.57V8.12c0-1.75-1.35-3.1-3.02-3.1s-3.02 1.35-3.02 3.1v5.33c0 3.26 2.47 7.48 2.47 7.48l6.85 12.9c2.79 5.09 2.55 8.84 2.55 8.84v7.08c0 3.9-3.18 7.08-7.16 7.08h-3.58a7.233 7.233 0 0 1-6.93-7.08v-5.73c0-1.83.88-2.71 1.59-3.1.48-.16 2.79-1.19 4.22-1.83v9.71c0 1.67 1.35 3.02 3.02 3.02s3.02-1.35 3.02-3.1v-6.37c0-3.26-2.47-7.56-2.47-7.56l-6.85-12.82c-2.79-5.09-2.55-8.84-2.55-8.84V7.4c0-3.9 3.19-7.4 7.16-7.4h3.58c3.82.08 6.92 3.58 6.92 7.4v2.15c0 1.83-.87 2.71-1.59 3.11-.48.24-2.71 1.27-4.22 1.91Z"/></g></svg>