<svg xmlns="http://www.w3.org/2000/svg" dataName="Layer 2" viewBox="0 0 244.42 295.15"><g dataName="Layer 1"><path d="M215.46 91.36c12.11 46.92-12.31 91.25-49.18 109.83 1.3-5.69.61-11.3.75-16.88.02-.87.23-1.42.99-1.96 18.84-13.36 30.61-31.36 34.12-54.21 3.97-25.85-3.13-48.68-20.8-67.98-12.41-13.55-27.93-21.68-46.04-24.87-1.13-.2-2.28-.34-3.47-.52V19.52c31.31 2.1 71.74 25.75 83.63 71.84Z"/><path d="M160.14 133.56v60.68c0 10.41-7.42 19.53-17.73 21.01-6.27.91-12.72 1.17-18.95-.35-9.48-2.31-15.89-10.85-15.89-20.59v-26.16c-5.28.94-10.44.78-15.57.48-9.14-.54-16.78-7.23-18.73-16.22-.81-3.75-.81-7.55-.25-11.32.42-2.85 1.91-5.01 4.65-6.23 3.69-1.64 7.33-3.36 11-5.03.24-.11.51-.16.93-.28v14.82c0 5.15 3.78 9.09 8.77 9.14 5.08.06 9.04-3.81 9.17-8.94V.08c.51-.03.94-.07 1.37-.07 2.95-.01 5.91-.01 8.87 0 4.45.02 7.07 2.66 7.07 7.11.01 12.32.01 24.63.01 36.94v1.23c4.77 0 9.44-.01 14.1 0 11.47 0 21.18 9.71 21.18 21.18v8.98h-5.87v-7.09h-5.62v7.11h-5.82c0-2.05.01-4.04 0-6.03-.03-4.61-3.24-8.22-7.92-8.92-4.14-.62-8.4 2.19-9.63 6.41-.26.91-.38 1.89-.38 2.83-.02 40.49-.02 80.99-.01 121.48 0 4.78 3.4 8.72 7.91 9.19 4.77.51 8.94-2.56 9.89-7.31.11-.54.13-1.11.13-1.66.01-16.15.01-32.3.01-48.45 0-.39-.04-.78-.06-1.19-3.4-.07-5.11-2.32-6.46-4.9-1.53-2.94-2.89-5.96-4.32-8.94-.57-1.18-1.13-2.36-1.77-3.71.6-.03 1.02-.07 1.43-.07 6.72-.01 13.43-.01 20.15 0 5.03 0 7.98 2.77 8.32 7.8.03.52.02 1.04.02 1.56Z"/><path d="M159.96 81.31c.05.06.14.13.13.19-.06 4.74.08 9.5-.27 14.22-.23 3.19-2.28 5.42-5.49 6.7V81.31h5.63ZM148.63 82.48c0 7.19-.02 14.38.02 21.57 0 .84-.23 1.29-1.03 1.6-1.55.61-3.05 1.32-4.71 2.04V81.34h5.66c.02.37.06.76.06 1.14ZM104.87 209.15c.27.43.54.87 1 1.61-13.96-2.39-26.5-7.45-37.98-15.21C56.4 187.79 47 178 39.69 166.22c-7.32-11.81-11.94-24.61-13.63-38.4-6.75-55.01 32.06-97.79 74.52-106.48.02.38.05.65.05.93 0 4.55-.02 9.11.02 13.67.01.84-.27 1.17-1.06 1.4-10.07 2.86-19.27 7.47-27.48 13.96-16.75 13.26-27.28 30.37-30.43 51.54-4.08 27.5 4.03 51.24 23.67 70.89 9.48 9.5 20.88 15.97 33.78 19.74 1.13.33 1.54.72 1.58 1.98.15 4.92 1.56 9.5 4.16 13.7ZM44.08 289.07c0 1.98-1.43 3.17-3.8 3.17h-2.25V295h-1.3v-9.1h3.55c2.37 0 3.8 1.2 3.8 3.17Zm-1.3 0c0-1.3-.87-2.04-2.54-2.04h-2.21v4.08h2.21c1.66 0 2.54-.74 2.54-2.04Z"/><path d="M38.09 295.05h-1.4v-9.2h3.6c2.41 0 3.85 1.21 3.85 3.22s-1.44 3.22-3.85 3.22h-2.2v2.76Zm-1.3-.1h1.2v-2.76h2.3c2.35 0 3.75-1.17 3.75-3.12s-1.4-3.12-3.75-3.12h-3.5v9Zm3.46-3.79h-2.26v-4.18h2.26c1.67 0 2.58.74 2.58 2.09s-.92 2.09-2.58 2.09Zm-2.16-.1h2.16c1.6 0 2.49-.71 2.49-1.99s-.88-1.99-2.49-1.99h-2.16v3.98ZM60.44 285.9v9.1h-1.3v-4.06h-5.23V295h-1.3v-9.1h1.3v3.91h5.23v-3.91h1.3Z"/><path d="M60.48 295.05h-1.4v-4.06h-5.13v4.06h-1.4v-9.2h1.4v3.91h5.13v-3.91h1.4v9.2Zm-1.3-.1h1.2v-9h-1.2v3.91h-5.33v-3.91h-1.2v9h1.2v-4.06h5.33v4.06ZM69.04 290.45c0-2.67 2.05-4.65 4.85-4.65s4.82 1.98 4.82 4.65-2.05 4.65-4.82 4.65-4.85-1.99-4.85-4.65Zm8.37 0c0-2.02-1.51-3.5-3.52-3.5s-3.55 1.48-3.55 3.5 1.51 3.5 3.55 3.5 3.52-1.48 3.52-3.5Z"/><path d="M73.89 295.15c-2.79 0-4.9-2.02-4.9-4.7s2.11-4.7 4.9-4.7 4.87 2.02 4.87 4.7-2.09 4.7-4.87 4.7Zm0-9.31c-2.74 0-4.8 1.98-4.8 4.6s2.02 4.6 4.8 4.6 4.77-1.94 4.77-4.6-2.01-4.6-4.77-4.6Zm0 8.15c-2.09 0-3.6-1.49-3.6-3.55s1.51-3.55 3.6-3.55 3.57 1.52 3.57 3.55-1.54 3.55-3.57 3.55Zm0-6.99c-2.03 0-3.5 1.45-3.5 3.45s1.47 3.45 3.5 3.45 3.47-1.48 3.47-3.45-1.49-3.45-3.47-3.45ZM89 287.03h-3.12v-1.13h7.53v1.13h-3.12V295H89v-7.97Z"/><path d="M90.33 295.05h-1.39v-7.97h-3.12v-1.23h7.63v1.23h-3.12v7.97Zm-1.29-.1h1.19v-7.97h3.12v-1.03h-7.43v1.03h3.12v7.97ZM100.57 290.45c0-2.67 2.05-4.65 4.85-4.65s4.82 1.98 4.82 4.65-2.05 4.65-4.82 4.65-4.85-1.99-4.85-4.65Zm8.37 0c0-2.02-1.51-3.5-3.52-3.5s-3.55 1.48-3.55 3.5 1.51 3.5 3.55 3.5 3.52-1.48 3.52-3.5Z"/><path d="M105.41 295.15c-2.79 0-4.9-2.02-4.9-4.7s2.11-4.7 4.9-4.7 4.87 2.02 4.87 4.7-2.09 4.7-4.87 4.7Zm0-9.31c-2.74 0-4.8 1.98-4.8 4.6s2.02 4.6 4.8 4.6 4.77-1.94 4.77-4.6-2.01-4.6-4.77-4.6Zm0 8.15c-2.09 0-3.6-1.49-3.6-3.55s1.51-3.55 3.6-3.55 3.57 1.52 3.57 3.55-1.54 3.55-3.57 3.55Zm0-6.99c-2.03 0-3.5 1.45-3.5 3.45s1.47 3.45 3.5 3.45 3.47-1.48 3.47-3.45-1.49-3.45-3.47-3.45ZM125.15 290.4h1.25v3.55c-.91.77-2.17 1.16-3.44 1.16-2.8 0-4.85-1.96-4.85-4.65s2.05-4.65 4.88-4.65c1.44 0 2.67.48 3.5 1.4l-.81.81c-.75-.73-1.61-1.05-2.64-1.05-2.11 0-3.63 1.47-3.63 3.5s1.52 3.5 3.61 3.5c.77 0 1.48-.17 2.13-.58v-2.96Z"/><path d="M122.95 295.15c-2.84 0-4.9-1.98-4.9-4.7s2.07-4.7 4.92-4.7c1.47 0 2.7.49 3.53 1.42l.03.04-.03.03-.84.84-.04-.03c-.73-.71-1.56-1.04-2.6-1.04-2.07 0-3.58 1.45-3.58 3.45s1.5 3.45 3.56 3.45c.8 0 1.48-.18 2.08-.56v-2.99h1.35v3.62h-.02c-.88.76-2.15 1.18-3.48 1.18Zm.03-9.31c-2.8 0-4.83 1.94-4.83 4.6s2.02 4.6 4.8 4.6c1.3 0 2.53-.41 3.39-1.13v-3.48h-1.15v2.94h-.02c-.62.41-1.33.61-2.16.61-2.12 0-3.66-1.49-3.66-3.55s1.55-3.55 3.68-3.55c1.04 0 1.9.34 2.64 1.03l.74-.74c-.82-.88-2-1.35-3.43-1.35ZM141.58 295l-1.96-2.79c-.18.01-.38.03-.57.03h-2.25v2.77h-1.3v-9.1h3.55c2.37 0 3.8 1.2 3.8 3.17 0 1.4-.73 2.42-2 2.87l2.16 3.05h-1.42Zm-.04-5.93c0-1.3-.87-2.04-2.54-2.04h-2.21v4.1H139c1.66 0 2.54-.75 2.54-2.05Z"/><path d="M143.09 295.05h-1.54v-.02l-1.96-2.77c-.18.01-.36.02-.55.02h-2.2v2.77h-1.4v-9.2h3.6c2.41 0 3.85 1.21 3.85 3.22 0 1.39-.7 2.42-1.97 2.9l2.18 3.08Zm-1.49-.1h1.29l-2.14-3.03.06-.02c1.27-.45 1.97-1.46 1.97-2.83 0-1.96-1.4-3.12-3.75-3.12h-3.5v9h1.2v-2.77h2.3c.19 0 .38-.01.57-.03h.03l.02.02 1.95 2.77Zm-2.6-3.77h-2.26v-4.2H139c1.67 0 2.58.74 2.58 2.09s-.92 2.1-2.58 2.1Zm-2.16-.1H139c1.6 0 2.49-.71 2.49-2s-.88-1.99-2.49-1.99h-2.16v4ZM157.36 292.72h-4.84l-1 2.28h-1.34l4.12-9.1h1.29l4.13 9.1h-1.37l-1-2.28Zm-.46-1.04-1.96-4.46-1.96 4.46h3.93Z"/><path d="M159.81 295.05h-1.47v-.03l-1-2.25h-4.77l-1 2.28h-1.45l.03-.07 4.13-9.13h1.35v.03l4.18 9.17Zm-1.41-.1h1.26l-4.09-9h-1.22l-4.08 9h1.23l1-2.28h4.9v.03l1 2.25Zm-1.41-3.22h-4.08l.03-.07 2.01-4.56.05.1 1.99 4.53Zm-3.93-.1h3.77l-1.89-4.29-1.89 4.29ZM175.04 289.07c0 1.98-1.43 3.17-3.8 3.17h-2.25V295h-1.3v-9.1h3.55c2.37 0 3.8 1.2 3.8 3.17Zm-1.3 0c0-1.3-.87-2.04-2.54-2.04h-2.21v4.08h2.21c1.66 0 2.54-.74 2.54-2.04Z"/><path d="M169.05 295.05h-1.4v-9.2h3.6c2.41 0 3.85 1.21 3.85 3.22s-1.44 3.22-3.85 3.22h-2.2v2.76Zm-1.3-.1h1.2v-2.76h2.3c2.35 0 3.75-1.17 3.75-3.12s-1.4-3.12-3.75-3.12h-3.5v9Zm3.46-3.79h-2.26v-4.18h2.26c1.67 0 2.58.74 2.58 2.09s-.92 2.09-2.58 2.09Zm-2.16-.1h2.16c1.6 0 2.49-.71 2.49-1.99s-.88-1.99-2.49-1.99h-2.16v3.98ZM191.4 285.9v9.1h-1.3v-4.06h-5.23V295h-1.3v-9.1h1.3v3.91h5.23v-3.91h1.3Z"/><path d="M191.45 295.05h-1.4v-4.06h-5.13v4.06h-1.4v-9.2h1.4v3.91h5.13v-3.91h1.4v9.2Zm-1.3-.1h1.2v-9h-1.2v3.91h-5.33v-3.91h-1.2v9h1.2v-4.06h5.33v4.06ZM204.23 291.85V295h-1.29v-3.17l-3.61-5.93h1.39l2.91 4.8 2.93-4.8h1.29l-3.61 5.95Z"/><path d="M204.28 295.05h-1.39v-3.21l-3.65-5.99h1.51v.02l2.88 4.73 2.9-4.75h1.4l-.05.08-3.61 5.94v3.18Zm-1.29-.1h1.19v-3.11l3.57-5.89h-1.17l-2.95 4.84-.04-.07-2.9-4.77h-1.27l3.58 5.87v3.14ZM7.98 244.98c.93 0 1.22.68 1.22 1.18v24.91c0 2.03-1.6 3.67-3.63 3.71v.04h-1.9c-2.07 0-3.67-1.69-3.67-3.76v-.59c0-.97.42-1.43.84-1.6.21-.13 1.35-.63 2.11-.97v2.66c0 .89.72 1.6 1.6 1.6s1.6-.72 1.6-1.6v-25.59h1.82ZM35.88 271.53c-.34.76-.84 1.94-.97 2.2-.21.38-.68.8-1.65.8H26.5v-28.71a.92.92 0 0 1 .93-.84h7.9l-1.01 2.2c-.17.38-.63.84-1.6.84h-2.45c-.42 0-.72.29-.72.72v8.78h4.56c-.34.76-.84 1.98-.97 2.24-.21.38-.63.8-1.6.8h-1.27c-.38 0-.72.34-.72.72v10.26h6.33ZM60.41 274.53h-3.34l-2.66-20.35-2.66 20.35h-3.34l4.48-29.55h1.65c1.27 0 1.48.8 1.6 1.6l4.26 27.95ZM83.75 274.53h-1.39c-1.65 0-1.9-1.31-2.03-1.9l-3.25-14.61v16.51h-3.04v-29.55h1.39c1.69 0 1.98.8 2.15 1.65L80.7 262v-17.01h3.04v29.55ZM102.96 261.95c0 .51-.42.93-.93.93h-4.56v-1.14c0-.46.42-.89.93-.89h4.56v1.1ZM126.18 253.04c0 1.01-.42 1.44-.84 1.65-.21.13-1.39.68-2.2 1.01v-6.75c0-.89-.72-1.6-1.6-1.6s-1.6.72-1.6 1.6v21.62c0 .89.72 1.6 1.6 1.6s1.6-.72 1.6-1.6v-8.82h-.13c-.68 0-1.1-.97-1.1-.97l-1.01-2.11h3.8c.93 0 1.48.51 1.48 1.65v10.77c0 2.03-1.65 3.67-3.67 3.76h-1.86c-2.07 0-3.76-1.69-3.76-3.76v-22.63c0-2.07 1.69-3.76 3.76-3.76h1.86c2.03.08 3.67 1.73 3.67 3.76v4.6ZM145.04 244.98c.89 0 1.22.68 1.22 1.18v28.37h-2.15c-.72 0-.84-.42-.89-.63v-28.92h1.82ZM174.09 271.53c-.34.76-.84 1.94-.97 2.2-.21.38-.68.8-1.65.8h-7.26v-29.55h2.11c.51.04.93.42.93.93v25.63h6.84ZM197.31 271.53c-.34.76-.84 1.94-.97 2.2-.21.38-.68.8-1.65.8h-7.26v-29.55h2.11c.51.04.93.42.93.93v25.63h6.84ZM220.35 271.53c-.34.76-.84 1.94-.97 2.2-.21.38-.68.8-1.65.8h-6.76v-28.71a.92.92 0 0 1 .93-.84h7.9l-1.01 2.2c-.17.38-.63.84-1.6.84h-2.45c-.42 0-.72.29-.72.72v8.78h4.56c-.34.76-.84 1.98-.97 2.24-.21.38-.63.8-1.6.8h-1.27c-.38 0-.72.34-.72.72v10.26h6.33ZM241.33 252.41v-3.42c0-.93-.72-1.65-1.6-1.65s-1.6.72-1.6 1.65v2.83c0 1.73 1.31 3.97 1.31 3.97l3.63 6.84c1.48 2.7 1.35 4.69 1.35 4.69v3.76c0 2.07-1.69 3.76-3.8 3.76h-1.9a3.825 3.825 0 0 1-3.67-3.76v-3.04c0-.97.46-1.44.84-1.65.25-.08 1.48-.63 2.24-.97v5.15c0 .89.72 1.6 1.6 1.6s1.6-.72 1.6-1.65v-3.38c0-1.73-1.31-4.01-1.31-4.01l-3.63-6.8c-1.48-2.7-1.35-4.69-1.35-4.69v-3.04c0-2.07 1.69-3.93 3.8-3.93h1.9c2.03.04 3.67 1.9 3.67 3.93v1.14c0 .97-.46 1.44-.84 1.65-.25.13-1.44.67-2.24 1.01Z"/></g></svg>